<svg xmlns="http://www.w3.org/2000/svg" viewBox="0 0 64 64" fill="none">
  <defs>
    <linearGradient id="panel" x1="10" y1="8" x2="52" y2="56" gradientUnits="userSpaceOnUse">
      <stop stop-color="#67E8F9"/>
      <stop offset=".42" stop-color="#22D3EE"/>
      <stop offset="1" stop-color="#0F172A"/>
    </linearGradient>
    <linearGradient id="spark" x1="43" y1="11" x2="57" y2="25" gradientUnits="userSpaceOnUse">
      <stop stop-color="#F8FAFC"/>
      <stop offset="1" stop-color="#CFFAFE"/>
    </linearGradient>
  </defs>
  <rect x="10" y="8" width="40" height="48" rx="18" fill="url(#panel)"/>
  <path
    d="M32 19.5c-7.15 0-13 5.83-13 13v5.67c0 1.88-.7 3.68-1.96 5.07l-1.17 1.28c-.74.81-.17 2.12.93 2.12h30.4c1.1 0 1.67-1.31.93-2.12l-1.17-1.28A7.5 7.5 0 0 1 45 38.17V32.5c0-7.17-5.85-13-13-13Z"
    fill="#F8FAFC"
  />
  <path
    d="M27.4 48.2c.88 2.35 2.6 3.52 4.6 3.52 2 0 3.72-1.17 4.6-3.52h-9.2Z"
    fill="#CFFAFE"
  />
  <circle cx="49" cy="18" r="8" fill="#F8FAFC"/>
  <path d="m49.7 11.7-4.2 7h3.35l-1.32 5.6 5-8h-3.22l.4-4.6Z" fill="#0891B2"/>
  <rect x="12" y="10" width="36" height="44" rx="16" stroke="rgba(255,255,255,0.22)"/>
</svg>
